solid OpenSCAD_Model
  facet normal 0 0 -1
    outer loop
      vertex -18.9889 -21.7817 -4.94153
      vertex -21.7817 18.2817 -4.94153
      vertex 21.7818 18.9889 -4.94153
    endloop
  endfacet
  facet normal -0 0 -1
    outer loop
      vertex 21.7818 18.9889 -4.94153
      vertex -21.7817 18.2817 -4.94153
      vertex -18.2817 21.7817 -4.94153
    endloop
  endfacet
  facet normal 0 0 -1
    outer loop
      vertex 21.7818 18.9889 -4.94153
      vertex -18.2817 21.7817 -4.94153
      vertex 21.7818 21.7817 -4.94153
    endloop
  endfacet
  facet normal 0 0 -1
    outer loop
      vertex -18.9889 -21.7817 -4.94153
      vertex -21.7817 -21.7817 -4.94153
      vertex -21.7817 18.2817 -4.94153
    endloop
  endfacet
  facet normal 0 0 1
    outer loop
      vertex -19.9818 20.0818 -2.69147
      vertex 21.7818 20.0818 -2.69147
      vertex -18.2817 21.7817 -2.69147
    endloop
  endfacet
  facet normal -0 0 1
    outer loop
      vertex -18.2817 21.7817 -2.69147
      vertex 21.7818 20.0818 -2.69147
      vertex 21.7818 21.7817 -2.69147
    endloop
  endfacet
  facet normal 0 1 -0
    outer loop
      vertex -19.9818 20.0818 -2.74146
      vertex -20.0818 20.0818 -2.74146
      vertex -19.9818 20.0818 -2.69147
    endloop
  endfacet
  facet normal 0 1 0
    outer loop
      vertex -19.9818 20.0818 -2.69147
      vertex -20.0818 20.0818 -2.74146
      vertex -20.0818 20.0818 -2.44147
    endloop
  endfacet
  facet normal 0 1 -0
    outer loop
      vertex -19.9818 20.0818 -2.69147
      vertex -20.0818 20.0818 -2.44147
      vertex -19.9818 20.0818 -2.44147
    endloop
  endfacet
  facet normal 0 1 0
    outer loop
      vertex 21.7818 20.0818 -2.44147
      vertex 21.7818 20.0818 -2.69147
      vertex -19.9818 20.0818 -2.44147
    endloop
  endfacet
  facet normal 0 1 0
    outer loop
      vertex -19.9818 20.0818 -2.44147
      vertex 21.7818 20.0818 -2.69147
      vertex -19.9818 20.0818 -2.69147
    endloop
  endfacet
  facet normal 0.707107 -0.707107 0
    outer loop
      vertex 21.0746 18.2817 4.94147
      vertex -18.2817 -21.0746 4.94147
      vertex 21.0746 18.2817 -1.94135
    endloop
  endfacet
  facet normal 0.707107 -0.707107 0
    outer loop
      vertex 21.0746 18.2817 -1.94135
      vertex -18.2817 -21.0746 4.94147
      vertex -18.2817 -21.0746 -1.94135
    endloop
  endfacet
  facet normal 0.707107 -0.707107 0
    outer loop
      vertex 21.0746 18.2817 -1.94135
      vertex -18.2817 -21.0746 -1.94135
      vertex 21.7818 18.9889 -4.94153
    endloop
  endfacet
  facet normal 0.707106 -0.707108 -2.316e-05
    outer loop
      vertex 21.7818 18.9889 -4.94153
      vertex -18.2817 -21.0746 -1.94135
      vertex -18.9889 -21.7817 -4.94153
    endloop
  endfacet
  facet normal 0.707057 -0.707157 0
    outer loop
      vertex -18.9889 -21.7817 -4.94153
      vertex -18.2817 -21.0746 -1.94135
      vertex -18.9889 -21.7817 -1.94135
    endloop
  endfacet
  facet normal 0.707107 -0.707107 0
    outer loop
      vertex 21.7818 18.9889 -4.94153
      vertex 21.7818 18.9889 -1.94135
      vertex 21.0746 18.2817 -1.94135
    endloop
  endfacet
  facet normal -0 0 -1
    outer loop
      vertex -19.9818 20.0818 -2.74146
      vertex -20.0818 19.9818 -2.74146
      vertex -20.0818 20.0818 -2.74146
    endloop
  endfacet
  facet normal 0 0 1
    outer loop
      vertex -20.0818 19.9818 -2.44147
      vertex -19.9818 20.0818 -2.44147
      vertex -20.0818 20.0818 -2.44147
    endloop
  endfacet
  facet normal -1 -0 -0
    outer loop
      vertex -20.0818 20.0818 -2.44147
      vertex -20.0818 20.0818 -2.74146
      vertex -20.0818 19.9818 -2.44147
    endloop
  endfacet
  facet normal -1 0 0
    outer loop
      vertex -20.0818 19.9818 -2.44147
      vertex -20.0818 20.0818 -2.74146
      vertex -20.0818 19.9818 -2.74146
    endloop
  endfacet
  facet normal -1 -0 -0
    outer loop
      vertex -20.0818 19.9818 -2.44147
      vertex -20.0818 19.9818 -2.74146
      vertex -20.0818 -21.7817 -2.44147
    endloop
  endfacet
  facet normal -1 0 0
    outer loop
      vertex -20.0818 -21.7817 -2.44147
      vertex -20.0818 19.9818 -2.74146
      vertex -20.0818 -21.7817 -2.74146
    endloop
  endfacet
  facet normal 0 0 -1
    outer loop
      vertex -19.9818 20.0818 -2.44147
      vertex -18.2817 21.7817 -2.44147
      vertex 21.7818 20.0818 -2.44147
    endloop
  endfacet
  facet normal 0 0 -1
    outer loop
      vertex 21.7818 20.0818 -2.44147
      vertex -18.2817 21.7817 -2.44147
      vertex 21.7818 21.7817 -2.44147
    endloop
  endfacet
  facet normal -0.707107 0.707107 -6.42804e-05
    outer loop
      vertex -19.9818 20.0818 -2.74146
      vertex -18.2817 21.7817 -4.94153
      vertex -20.0818 19.9818 -2.74146
    endloop
  endfacet
  facet normal -0.707107 0.707107 -6.42804e-05
    outer loop
      vertex -20.0818 19.9818 -2.74146
      vertex -18.2817 21.7817 -4.94153
      vertex -21.7817 18.2817 -4.94153
    endloop
  endfacet
  facet normal -0.707148 0.707065 0
    outer loop
      vertex -20.0818 19.9818 -2.74146
      vertex -21.7817 18.2817 -4.94153
      vertex -21.7817 18.2817 -2.74146
    endloop
  endfacet
  facet normal -0.707065 0.707148 0
    outer loop
      vertex -19.9818 20.0818 -2.69147
      vertex -18.2817 21.7817 -2.69147
      vertex -19.9818 20.0818 -2.74146
    endloop
  endfacet
  facet normal -0.707065 0.707148 0
    outer loop
      vertex -19.9818 20.0818 -2.74146
      vertex -18.2817 21.7817 -2.69147
      vertex -18.2817 21.7817 -4.94153
    endloop
  endfacet
  facet normal -0.707148 0.707065 0
    outer loop
      vertex -21.7817 18.2817 -2.44147
      vertex -21.7817 18.2817 -1.94135
      vertex -20.0818 19.9818 -2.44147
    endloop
  endfacet
  facet normal -0.707107 0.707107 0.000282775
    outer loop
      vertex -20.0818 19.9818 -2.44147
      vertex -21.7817 18.2817 -1.94135
      vertex -18.2817 21.7817 -1.94135
    endloop
  endfacet
  facet normal -0.707107 0.707107 0.000282775
    outer loop
      vertex -20.0818 19.9818 -2.44147
      vertex -18.2817 21.7817 -1.94135
      vertex -19.9818 20.0818 -2.44147
    endloop
  endfacet
  facet normal -0.707065 0.707148 0
    outer loop
      vertex -19.9818 20.0818 -2.44147
      vertex -18.2817 21.7817 -1.94135
      vertex -18.2817 21.7817 -2.44147
    endloop
  endfacet
  facet normal -1 -0 -0
    outer loop
      vertex -21.7817 18.2817 -2.74146
      vertex -21.7817 18.2817 -4.94153
      vertex -21.7817 -21.7817 -2.74146
    endloop
  endfacet
  facet normal -1 0 0
    outer loop
      vertex -21.7817 -21.7817 -2.74146
      vertex -21.7817 18.2817 -4.94153
      vertex -21.7817 -21.7817 -4.94153
    endloop
  endfacet
  facet normal 0 -1 0
    outer loop
      vertex -21.7817 -21.7817 -4.94153
      vertex -18.9889 -21.7817 -4.94153
      vertex -20.0818 -21.7817 -2.74146
    endloop
  endfacet
  facet normal 0 -1 0
    outer loop
      vertex -20.0818 -21.7817 -2.74146
      vertex -18.9889 -21.7817 -4.94153
      vertex -18.9889 -21.7817 -1.94135
    endloop
  endfacet
  facet normal 0 -1 0
    outer loop
      vertex -20.0818 -21.7817 -2.74146
      vertex -18.9889 -21.7817 -1.94135
      vertex -20.0818 -21.7817 -2.44147
    endloop
  endfacet
  facet normal 0 -1 0
    outer loop
      vertex -20.0818 -21.7817 -2.44147
      vertex -18.9889 -21.7817 -1.94135
      vertex -20.1371 -21.7817 -1.94135
    endloop
  endfacet
  facet normal 0 -1 0
    outer loop
      vertex -20.0818 -21.7817 -2.44147
      vertex -20.1371 -21.7817 -1.94135
      vertex -20.4083 -21.7817 -1.88702
    endloop
  endfacet
  facet normal -0 -1 -0
    outer loop
      vertex -20.4083 -21.7817 -1.88702
      vertex -20.683 -21.7817 -1.85431
      vertex -20.0818 -21.7817 -2.44147
    endloop
  endfacet
  facet normal 0 -1 0
    outer loop
      vertex -20.0818 -21.7817 -2.44147
      vertex -20.683 -21.7817 -1.85431
      vertex -20.9594 -21.7817 -1.84338
    endloop
  endfacet
  facet normal 0 -1 0
    outer loop
      vertex -20.0818 -21.7817 -2.44147
      vertex -20.9594 -21.7817 -1.84338
      vertex -21.7817 -21.7817 -2.44147
    endloop
  endfacet
  facet normal 0 -1 0
    outer loop
      vertex -21.7817 -21.7817 -2.44147
      vertex -20.9594 -21.7817 -1.84338
      vertex -21.2358 -21.7817 -1.85431
    endloop
  endfacet
  facet normal 0 -1 0
    outer loop
      vertex -21.7817 -21.7817 -2.44147
      vertex -21.2358 -21.7817 -1.85431
      vertex -21.5105 -21.7817 -1.88702
    endloop
  endfacet
  facet normal 0 -1 0
    outer loop
      vertex -21.5105 -21.7817 -1.88702
      vertex -21.7817 -21.7817 -1.94135
      vertex -21.7817 -21.7817 -2.44147
    endloop
  endfacet
  facet normal -0 -1 0
    outer loop
      vertex -20.0818 -21.7817 -2.74146
      vertex -21.7817 -21.7817 -2.74146
      vertex -21.7817 -21.7817 -4.94153
    endloop
  endfacet
  facet normal 0 -0 -1
    outer loop
      vertex -20.0818 19.9818 -2.44147
      vertex -20.0818 -21.7817 -2.44147
      vertex -21.7817 18.2817 -2.44147
    endloop
  endfacet
  facet normal 0 0 -1
    outer loop
      vertex -21.7817 18.2817 -2.44147
      vertex -20.0818 -21.7817 -2.44147
      vertex -21.7817 -21.7817 -2.44147
    endloop
  endfacet
  facet normal 0 0 1
    outer loop
      vertex -20.0818 19.9818 -2.74146
      vertex -21.7817 18.2817 -2.74146
      vertex -20.0818 -21.7817 -2.74146
    endloop
  endfacet
  facet normal 0 0 1
    outer loop
      vertex -20.0818 -21.7817 -2.74146
      vertex -21.7817 18.2817 -2.74146
      vertex -21.7817 -21.7817 -2.74146
    endloop
  endfacet
  facet normal 0 1 0
    outer loop
      vertex -18.2817 21.7817 -4.94153
      vertex -18.2817 21.7817 -2.69147
      vertex 21.7818 21.7817 -4.94153
    endloop
  endfacet
  facet normal 0 1 -0
    outer loop
      vertex 21.7818 21.7817 -4.94153
      vertex -18.2817 21.7817 -2.69147
      vertex 21.7818 21.7817 -2.69147
    endloop
  endfacet
  facet normal 0 1 0
    outer loop
      vertex 21.7818 21.7817 -1.94135
      vertex 21.7818 21.7817 -2.44147
      vertex -3.21823 21.7817 -1.94135
    endloop
  endfacet
  facet normal 0 1 0
    outer loop
      vertex -3.21823 21.7817 -1.94135
      vertex 21.7818 21.7817 -2.44147
      vertex -18.2817 21.7817 -2.44147
    endloop
  endfacet
  facet normal 0 1 0
    outer loop
      vertex -3.21823 21.7817 -1.94135
      vertex -18.2817 21.7817 -2.44147
      vertex -18.2817 21.7817 -1.94135
    endloop
  endfacet
  facet normal 1 0 0
    outer loop
      vertex 21.7818 21.7817 -2.44147
      vertex 21.7818 20.9594 -1.84338
      vertex 21.7818 20.0818 -2.44147
    endloop
  endfacet
  facet normal 1 0 0
    outer loop
      vertex 21.7818 20.0818 -2.44147
      vertex 21.7818 20.9594 -1.84338
      vertex 21.7818 20.683 -1.85431
    endloop
  endfacet
  facet normal 1 0 0
    outer loop
      vertex 21.7818 20.0818 -2.44147
      vertex 21.7818 20.683 -1.85431
      vertex 21.7818 20.4083 -1.88702
    endloop
  endfacet
  facet normal 1 0 0
    outer loop
      vertex 21.7818 21.7817 -1.94135
      vertex 21.7818 21.5105 -1.88702
      vertex 21.7818 21.7817 -2.44147
    endloop
  endfacet
  facet normal 1 0 0
    outer loop
      vertex 21.7818 21.7817 -2.44147
      vertex 21.7818 21.5105 -1.88702
      vertex 21.7818 21.2358 -1.85431
    endloop
  endfacet
  facet normal 1 0 0
    outer loop
      vertex 21.7818 21.7817 -2.44147
      vertex 21.7818 21.2358 -1.85431
      vertex 21.7818 20.9594 -1.84338
    endloop
  endfacet
  facet normal 1 0 0
    outer loop
      vertex 21.7818 20.4083 -1.88702
      vertex 21.7818 20.1371 -1.94135
      vertex 21.7818 20.0818 -2.44147
    endloop
  endfacet
  facet normal 1 0 -0
    outer loop
      vertex 21.7818 20.0818 -2.44147
      vertex 21.7818 20.1371 -1.94135
      vertex 21.7818 18.9889 -1.94135
    endloop
  endfacet
  facet normal 1 0 0
    outer loop
      vertex 21.7818 20.0818 -2.44147
      vertex 21.7818 18.9889 -1.94135
      vertex 21.7818 20.0818 -2.69147
    endloop
  endfacet
  facet normal 1 0 0
    outer loop
      vertex 21.7818 20.0818 -2.69147
      vertex 21.7818 18.9889 -1.94135
      vertex 21.7818 18.9889 -4.94153
    endloop
  endfacet
  facet normal 1 0 0
    outer loop
      vertex 21.7818 20.0818 -2.69147
      vertex 21.7818 18.9889 -4.94153
      vertex 21.7818 21.7817 -4.94153
    endloop
  endfacet
  facet normal 1 0 -0
    outer loop
      vertex 21.7818 21.7817 -4.94153
      vertex 21.7818 21.7817 -2.69147
      vertex 21.7818 20.0818 -2.69147
    endloop
  endfacet
  facet normal -0.707107 0.707107 0
    outer loop
      vertex -13.2817 18.2817 4.94147
      vertex -13.2817 18.2817 -1.94135
      vertex -18.2817 13.2817 4.94147
    endloop
  endfacet
  facet normal -0.707107 0.707107 0
    outer loop
      vertex -18.2817 13.2817 4.94147
      vertex -13.2817 18.2817 -1.94135
      vertex -18.2817 13.2817 -1.94135
    endloop
  endfacet
  facet normal -0 1 0
    outer loop
      vertex -13.2817 18.2817 4.94147
      vertex 21.0746 18.2817 4.94147
      vertex -13.2817 18.2817 -1.94135
    endloop
  endfacet
  facet normal 0 1 0
    outer loop
      vertex -13.2817 18.2817 -1.94135
      vertex 21.0746 18.2817 4.94147
      vertex 21.0746 18.2817 -1.94135
    endloop
  endfacet
  facet normal -0.196429 0 0.980518
    outer loop
      vertex -21.5105 -21.7817 -1.88702
      vertex -21.5105 -16.7817 -1.88702
      vertex -21.7817 -21.7817 -1.94135
    endloop
  endfacet
  facet normal -0.196429 0 0.980518
    outer loop
      vertex -21.7817 -21.7817 -1.94135
      vertex -21.5105 -16.7817 -1.88702
      vertex -21.5105 -11.7817 -1.88702
    endloop
  endfacet
  facet normal -0.196429 0 0.980518
    outer loop
      vertex -21.7817 -21.7817 -1.94135
      vertex -21.5105 -11.7817 -1.88702
      vertex -21.5105 -6.78174 -1.88702
    endloop
  endfacet
  facet normal -0.11824 0 0.992985
    outer loop
      vertex -21.5105 -6.78174 -1.88702
      vertex -21.5105 -11.7817 -1.88702
      vertex -21.2358 -6.78174 -1.85431
    endloop
  endfacet
  facet normal -0.11824 0 0.992985
    outer loop
      vertex -21.5105 -6.78174 -1.88702
      vertex -21.2358 -6.78174 -1.85431
      vertex -21.2358 -1.78174 -1.85431
    endloop
  endfacet
  facet normal -0.0395133 0 0.999219
    outer loop
      vertex -21.2358 -1.78174 -1.85431
      vertex -21.2358 -6.78174 -1.85431
      vertex -20.9594 -1.78174 -1.84338
    endloop
  endfacet
  facet normal -0.0395133 0 0.999219
    outer loop
      vertex -21.2358 -1.78174 -1.85431
      vertex -20.9594 -1.78174 -1.84338
      vertex -20.9594 3.21826 -1.84338
    endloop
  endfacet
  facet normal 0.0395133 0 0.999219
    outer loop
      vertex -20.9594 3.21826 -1.84338
      vertex -20.9594 -1.78174 -1.84338
      vertex -20.683 3.21826 -1.85431
    endloop
  endfacet
  facet normal 0.0395133 0 0.999219
    outer loop
      vertex -20.683 3.21826 -1.85431
      vertex -20.9594 -1.78174 -1.84338
      vertex -20.683 -1.78174 -1.85431
    endloop
  endfacet
  facet normal 0.11824 0 0.992985
    outer loop
      vertex -20.683 3.21826 -1.85431
      vertex -20.683 -1.78174 -1.85431
      vertex -20.4083 3.21826 -1.88702
    endloop
  endfacet
  facet normal 0.11824 0 0.992985
    outer loop
      vertex -20.4083 3.21826 -1.88702
      vertex -20.683 -1.78174 -1.85431
      vertex -20.4083 -1.78174 -1.88702
    endloop
  endfacet
  facet normal 0.196429 0 0.980518
    outer loop
      vertex -20.4083 3.21826 -1.88702
      vertex -20.4083 -1.78174 -1.88702
      vertex -20.1371 3.21826 -1.94135
    endloop
  endfacet
  facet normal 0.196429 0 0.980518
    outer loop
      vertex -20.1371 3.21826 -1.94135
      vertex -20.4083 -1.78174 -1.88702
      vertex -20.4083 -6.78174 -1.88702
    endloop
  endfacet
  facet normal 0.196429 0 0.980518
    outer loop
      vertex -20.1371 3.21826 -1.94135
      vertex -20.4083 -6.78174 -1.88702
      vertex -20.4083 -11.7817 -1.88702
    endloop
  endfacet
  facet normal 0.11824 -0 0.992985
    outer loop
      vertex -20.4083 -11.7817 -1.88702
      vertex -20.4083 -6.78174 -1.88702
      vertex -20.683 -11.7817 -1.85431
    endloop
  endfacet
  facet normal 0.11824 0 0.992985
    outer loop
      vertex -20.4083 -11.7817 -1.88702
      vertex -20.683 -11.7817 -1.85431
      vertex -20.683 -16.7817 -1.85431
    endloop
  endfacet
  facet normal 0.0395133 -0 0.999219
    outer loop
      vertex -20.683 -16.7817 -1.85431
      vertex -20.683 -11.7817 -1.85431
      vertex -20.9594 -16.7817 -1.84338
    endloop
  endfacet
  facet normal 0.0395133 0 0.999219
    outer loop
      vertex -20.683 -16.7817 -1.85431
      vertex -20.9594 -16.7817 -1.84338
      vertex -20.9594 -21.7817 -1.84338
    endloop
  endfacet
  facet normal -0.0395133 0 0.999219
    outer loop
      vertex -20.9594 -21.7817 -1.84338
      vertex -20.9594 -16.7817 -1.84338
      vertex -21.2358 -21.7817 -1.85431
    endloop
  endfacet
  facet normal -0.0395133 0 0.999219
    outer loop
      vertex -21.2358 -21.7817 -1.85431
      vertex -20.9594 -16.7817 -1.84338
      vertex -21.2358 -16.7817 -1.85431
    endloop
  endfacet
  facet normal -0.11824 0 0.992985
    outer loop
      vertex -21.2358 -21.7817 -1.85431
      vertex -21.2358 -16.7817 -1.85431
      vertex -21.5105 -21.7817 -1.88702
    endloop
  endfacet
  facet normal -0.11824 0 0.992985
    outer loop
      vertex -21.5105 -21.7817 -1.88702
      vertex -21.2358 -16.7817 -1.85431
      vertex -21.5105 -16.7817 -1.88702
    endloop
  endfacet
  facet normal 0.0395133 0 0.999219
    outer loop
      vertex -20.9594 -21.7817 -1.84338
      vertex -20.683 -21.7817 -1.85431
      vertex -20.683 -16.7817 -1.85431
    endloop
  endfacet
  facet normal 0.11824 0 0.992985
    outer loop
      vertex -20.683 -16.7817 -1.85431
      vertex -20.683 -21.7817 -1.85431
      vertex -20.4083 -16.7817 -1.88702
    endloop
  endfacet
  facet normal 0.11824 0 0.992985
    outer loop
      vertex -20.683 -16.7817 -1.85431
      vertex -20.4083 -16.7817 -1.88702
      vertex -20.4083 -11.7817 -1.88702
    endloop
  endfacet
  facet normal 0.196429 0 0.980518
    outer loop
      vertex -20.4083 -11.7817 -1.88702
      vertex -20.4083 -16.7817 -1.88702
      vertex -20.1371 -21.7817 -1.94135
    endloop
  endfacet
  facet normal 0.196429 0 0.980518
    outer loop
      vertex -20.4083 -11.7817 -1.88702
      vertex -20.1371 -21.7817 -1.94135
      vertex -20.1371 3.21826 -1.94135
    endloop
  endfacet
  facet normal 0.11824 0 0.992985
    outer loop
      vertex -20.683 -21.7817 -1.85431
      vertex -20.4083 -21.7817 -1.88702
      vertex -20.4083 -16.7817 -1.88702
    endloop
  endfacet
  facet normal 0.196429 0 0.980518
    outer loop
      vertex -20.4083 -16.7817 -1.88702
      vertex -20.4083 -21.7817 -1.88702
      vertex -20.1371 -21.7817 -1.94135
    endloop
  endfacet
  facet normal -0.0395133 0 0.999219
    outer loop
      vertex -20.9594 3.21826 -1.84338
      vertex -21.2358 3.21826 -1.85431
      vertex -21.2358 -1.78174 -1.85431
    endloop
  endfacet
  facet normal -0.11824 0 0.992985
    outer loop
      vertex -21.2358 -1.78174 -1.85431
      vertex -21.2358 3.21826 -1.85431
      vertex -21.5105 -1.78174 -1.88702
    endloop
  endfacet
  facet normal -0.11824 0 0.992985
    outer loop
      vertex -21.2358 -1.78174 -1.85431
      vertex -21.5105 -1.78174 -1.88702
      vertex -21.5105 -6.78174 -1.88702
    endloop
  endfacet
  facet normal -0.196429 0 0.980518
    outer loop
      vertex -21.5105 -6.78174 -1.88702
      vertex -21.5105 -1.78174 -1.88702
      vertex -21.7817 3.21826 -1.94135
    endloop
  endfacet
  facet normal -0.196429 0 0.980518
    outer loop
      vertex -21.5105 -6.78174 -1.88702
      vertex -21.7817 3.21826 -1.94135
      vertex -21.7817 -21.7817 -1.94135
    endloop
  endfacet
  facet normal -0.11824 0 0.992985
    outer loop
      vertex -21.2358 3.21826 -1.85431
      vertex -21.5105 3.21826 -1.88702
      vertex -21.5105 -1.78174 -1.88702
    endloop
  endfacet
  facet normal -0.196429 0 0.980518
    outer loop
      vertex -21.5105 -1.78174 -1.88702
      vertex -21.5105 3.21826 -1.88702
      vertex -21.7817 3.21826 -1.94135
    endloop
  endfacet
  facet normal -0.11824 0 0.992985
    outer loop
      vertex -21.5105 -11.7817 -1.88702
      vertex -21.5105 -16.7817 -1.88702
      vertex -21.2358 -11.7817 -1.85431
    endloop
  endfacet
  facet normal -0.11824 0 0.992985
    outer loop
      vertex -21.2358 -11.7817 -1.85431
      vertex -21.5105 -16.7817 -1.88702
      vertex -21.2358 -16.7817 -1.85431
    endloop
  endfacet
  facet normal -0.0395133 0 0.999219
    outer loop
      vertex -21.2358 -11.7817 -1.85431
      vertex -21.2358 -16.7817 -1.85431
      vertex -20.9594 -11.7817 -1.84338
    endloop
  endfacet
  facet normal -0.0395133 0 0.999219
    outer loop
      vertex -20.9594 -11.7817 -1.84338
      vertex -21.2358 -16.7817 -1.85431
      vertex -20.9594 -16.7817 -1.84338
    endloop
  endfacet
  facet normal 0.0395133 0 0.999219
    outer loop
      vertex -20.9594 -11.7817 -1.84338
      vertex -20.9594 -16.7817 -1.84338
      vertex -20.683 -11.7817 -1.85431
    endloop
  endfacet
  facet normal -0.11824 0 0.992985
    outer loop
      vertex -21.5105 -11.7817 -1.88702
      vertex -21.2358 -11.7817 -1.85431
      vertex -21.2358 -6.78174 -1.85431
    endloop
  endfacet
  facet normal -0.0395133 0 0.999219
    outer loop
      vertex -21.2358 -6.78174 -1.85431
      vertex -21.2358 -11.7817 -1.85431
      vertex -20.9594 -6.78174 -1.84338
    endloop
  endfacet
  facet normal -0.0395133 0 0.999219
    outer loop
      vertex -21.2358 -6.78174 -1.85431
      vertex -20.9594 -6.78174 -1.84338
      vertex -20.9594 -1.78174 -1.84338
    endloop
  endfacet
  facet normal 0.0395133 0 0.999219
    outer loop
      vertex -20.9594 -1.78174 -1.84338
      vertex -20.9594 -6.78174 -1.84338
      vertex -20.683 -1.78174 -1.85431
    endloop
  endfacet
  facet normal -0.0395133 0 0.999219
    outer loop
      vertex -20.9594 -6.78174 -1.84338
      vertex -21.2358 -11.7817 -1.85431
      vertex -20.9594 -11.7817 -1.84338
    endloop
  endfacet
  facet normal 0.0395133 0 0.999219
    outer loop
      vertex -20.9594 -6.78174 -1.84338
      vertex -20.9594 -11.7817 -1.84338
      vertex -20.683 -6.78174 -1.85431
    endloop
  endfacet
  facet normal 0.0395133 0 0.999219
    outer loop
      vertex -20.683 -6.78174 -1.85431
      vertex -20.9594 -11.7817 -1.84338
      vertex -20.683 -11.7817 -1.85431
    endloop
  endfacet
  facet normal 0.11824 0 0.992985
    outer loop
      vertex -20.683 -6.78174 -1.85431
      vertex -20.683 -11.7817 -1.85431
      vertex -20.4083 -6.78174 -1.88702
    endloop
  endfacet
  facet normal 0.11824 0 0.992985
    outer loop
      vertex -20.4083 -1.78174 -1.88702
      vertex -20.683 -1.78174 -1.85431
      vertex -20.683 -6.78174 -1.85431
    endloop
  endfacet
  facet normal 0.0395133 -0 0.999219
    outer loop
      vertex -20.683 -6.78174 -1.85431
      vertex -20.683 -1.78174 -1.85431
      vertex -20.9594 -6.78174 -1.84338
    endloop
  endfacet
  facet normal 0.11824 0 0.992985
    outer loop
      vertex -20.4083 -1.78174 -1.88702
      vertex -20.683 -6.78174 -1.85431
      vertex -20.4083 -6.78174 -1.88702
    endloop
  endfacet
  facet normal 0 1 0
    outer loop
      vertex -20.1371 3.21826 -1.94135
      vertex -21.7817 3.21826 -1.94135
      vertex -20.4083 3.21826 -1.88702
    endloop
  endfacet
  facet normal 0 1 0
    outer loop
      vertex -20.4083 3.21826 -1.88702
      vertex -21.7817 3.21826 -1.94135
      vertex -21.5105 3.21826 -1.88702
    endloop
  endfacet
  facet normal 0 1 0
    outer loop
      vertex -20.4083 3.21826 -1.88702
      vertex -21.5105 3.21826 -1.88702
      vertex -21.2358 3.21826 -1.85431
    endloop
  endfacet
  facet normal 0 1 0
    outer loop
      vertex -20.9594 3.21826 -1.84338
      vertex -20.683 3.21826 -1.85431
      vertex -21.2358 3.21826 -1.85431
    endloop
  endfacet
  facet normal -0 1 0
    outer loop
      vertex -21.2358 3.21826 -1.85431
      vertex -20.683 3.21826 -1.85431
      vertex -20.4083 3.21826 -1.88702
    endloop
  endfacet
  facet normal 0 -0 1
    outer loop
      vertex -18.9889 -21.7817 -1.94135
      vertex -18.2817 -21.0746 -1.94135
      vertex -20.1371 -21.7817 -1.94135
    endloop
  endfacet
  facet normal 0 0 1
    outer loop
      vertex -20.1371 -21.7817 -1.94135
      vertex -18.2817 -21.0746 -1.94135
      vertex -20.1371 3.21826 -1.94135
    endloop
  endfacet
  facet normal -0 0 1
    outer loop
      vertex -20.1371 3.21826 -1.94135
      vertex -18.2817 -21.0746 -1.94135
      vertex -18.2817 13.2817 -1.94135
    endloop
  endfacet
  facet normal 0 -0 1
    outer loop
      vertex -20.1371 3.21826 -1.94135
      vertex -18.2817 13.2817 -1.94135
      vertex -21.7817 3.21826 -1.94135
    endloop
  endfacet
  facet normal 0 0 1
    outer loop
      vertex -21.7817 3.21826 -1.94135
      vertex -18.2817 13.2817 -1.94135
      vertex -21.7817 18.2817 -1.94135
    endloop
  endfacet
  facet normal -0 0 1
    outer loop
      vertex -21.7817 18.2817 -1.94135
      vertex -18.2817 13.2817 -1.94135
      vertex -18.2817 21.7817 -1.94135
    endloop
  endfacet
  facet normal 0 0 1
    outer loop
      vertex -18.2817 21.7817 -1.94135
      vertex -18.2817 13.2817 -1.94135
      vertex -13.2817 18.2817 -1.94135
    endloop
  endfacet
  facet normal -0 0 1
    outer loop
      vertex -18.2817 21.7817 -1.94135
      vertex -13.2817 18.2817 -1.94135
      vertex -3.21823 21.7817 -1.94135
    endloop
  endfacet
  facet normal 0 0 1
    outer loop
      vertex -3.21823 21.7817 -1.94135
      vertex -13.2817 18.2817 -1.94135
      vertex -3.21823 20.1371 -1.94135
    endloop
  endfacet
  facet normal 0 0 1
    outer loop
      vertex -3.21823 20.1371 -1.94135
      vertex -13.2817 18.2817 -1.94135
      vertex 21.0746 18.2817 -1.94135
    endloop
  endfacet
  facet normal -0 0 1
    outer loop
      vertex -3.21823 20.1371 -1.94135
      vertex 21.0746 18.2817 -1.94135
      vertex 21.7818 20.1371 -1.94135
    endloop
  endfacet
  facet normal 0 0 1
    outer loop
      vertex 21.7818 20.1371 -1.94135
      vertex 21.0746 18.2817 -1.94135
      vertex 21.7818 18.9889 -1.94135
    endloop
  endfacet
  facet normal -1 0 0
    outer loop
      vertex -18.2817 13.2817 -1.94135
      vertex -18.2817 -21.0746 -1.94135
      vertex -18.2817 13.2817 4.94147
    endloop
  endfacet
  facet normal -1 -0 0
    outer loop
      vertex -18.2817 13.2817 4.94147
      vertex -18.2817 -21.0746 -1.94135
      vertex -18.2817 -21.0746 4.94147
    endloop
  endfacet
  facet normal -1 -0 -0
    outer loop
      vertex -21.7817 18.2817 -1.94135
      vertex -21.7817 18.2817 -2.44147
      vertex -21.7817 3.21826 -1.94135
    endloop
  endfacet
  facet normal -1 0 -0
    outer loop
      vertex -21.7817 3.21826 -1.94135
      vertex -21.7817 18.2817 -2.44147
      vertex -21.7817 -21.7817 -2.44147
    endloop
  endfacet
  facet normal -1 -0 0
    outer loop
      vertex -21.7817 3.21826 -1.94135
      vertex -21.7817 -21.7817 -2.44147
      vertex -21.7817 -21.7817 -1.94135
    endloop
  endfacet
  facet normal 0 -0.196429 0.980518
    outer loop
      vertex 21.7818 20.4083 -1.88702
      vertex 16.7818 20.4083 -1.88702
      vertex 21.7818 20.1371 -1.94135
    endloop
  endfacet
  facet normal 0 -0.196429 0.980518
    outer loop
      vertex 21.7818 20.1371 -1.94135
      vertex 16.7818 20.4083 -1.88702
      vertex 11.7818 20.4083 -1.88702
    endloop
  endfacet
  facet normal 0 -0.196429 0.980518
    outer loop
      vertex 21.7818 20.1371 -1.94135
      vertex 11.7818 20.4083 -1.88702
      vertex 6.78177 20.4083 -1.88702
    endloop
  endfacet
  facet normal 0 -0.11824 0.992985
    outer loop
      vertex 6.78177 20.4083 -1.88702
      vertex 11.7818 20.4083 -1.88702
      vertex 6.78177 20.683 -1.85431
    endloop
  endfacet
  facet normal 0 -0.11824 0.992985
    outer loop
      vertex 6.78177 20.4083 -1.88702
      vertex 6.78177 20.683 -1.85431
      vertex 1.78177 20.683 -1.85431
    endloop
  endfacet
  facet normal 0 -0.0395133 0.999219
    outer loop
      vertex 1.78177 20.683 -1.85431
      vertex 6.78177 20.683 -1.85431
      vertex 1.78177 20.9594 -1.84338
    endloop
  endfacet
  facet normal 0 -0.0395133 0.999219
    outer loop
      vertex 1.78177 20.683 -1.85431
      vertex 1.78177 20.9594 -1.84338
      vertex -3.21823 20.9594 -1.84338
    endloop
  endfacet
  facet normal -0 0.0395133 0.999219
    outer loop
      vertex -3.21823 20.9594 -1.84338
      vertex 1.78177 20.9594 -1.84338
      vertex -3.21823 21.2358 -1.85431
    endloop
  endfacet
  facet normal -0 0.0395133 0.999219
    outer loop
      vertex -3.21823 21.2358 -1.85431
      vertex 1.78177 20.9594 -1.84338
      vertex 1.78177 21.2358 -1.85431
    endloop
  endfacet
  facet normal -0 0.11824 0.992985
    outer loop
      vertex -3.21823 21.2358 -1.85431
      vertex 1.78177 21.2358 -1.85431
      vertex -3.21823 21.5105 -1.88702
    endloop
  endfacet
  facet normal -0 0.11824 0.992985
    outer loop
      vertex -3.21823 21.5105 -1.88702
      vertex 1.78177 21.2358 -1.85431
      vertex 1.78177 21.5105 -1.88702
    endloop
  endfacet
  facet normal -0 0.196429 0.980518
    outer loop
      vertex -3.21823 21.5105 -1.88702
      vertex 1.78177 21.5105 -1.88702
      vertex -3.21823 21.7817 -1.94135
    endloop
  endfacet
  facet normal 0 0.196429 0.980518
    outer loop
      vertex -3.21823 21.7817 -1.94135
      vertex 1.78177 21.5105 -1.88702
      vertex 6.78177 21.5105 -1.88702
    endloop
  endfacet
  facet normal 0 0.196429 0.980518
    outer loop
      vertex -3.21823 21.7817 -1.94135
      vertex 6.78177 21.5105 -1.88702
      vertex 11.7818 21.5105 -1.88702
    endloop
  endfacet
  facet normal 0 0.11824 0.992985
    outer loop
      vertex 11.7818 21.5105 -1.88702
      vertex 6.78177 21.5105 -1.88702
      vertex 11.7818 21.2358 -1.85431
    endloop
  endfacet
  facet normal 0 0.11824 0.992985
    outer loop
      vertex 11.7818 21.5105 -1.88702
      vertex 11.7818 21.2358 -1.85431
      vertex 16.7818 21.2358 -1.85431
    endloop
  endfacet
  facet normal 0 0.0395133 0.999219
    outer loop
      vertex 16.7818 21.2358 -1.85431
      vertex 11.7818 21.2358 -1.85431
      vertex 16.7818 20.9594 -1.84338
    endloop
  endfacet
  facet normal 0 0.0395133 0.999219
    outer loop
      vertex 16.7818 21.2358 -1.85431
      vertex 16.7818 20.9594 -1.84338
      vertex 21.7818 20.9594 -1.84338
    endloop
  endfacet
  facet normal 0 -0.0395133 0.999219
    outer loop
      vertex 21.7818 20.9594 -1.84338
      vertex 16.7818 20.9594 -1.84338
      vertex 21.7818 20.683 -1.85431
    endloop
  endfacet
  facet normal 0 -0.0395133 0.999219
    outer loop
      vertex 21.7818 20.683 -1.85431
      vertex 16.7818 20.9594 -1.84338
      vertex 16.7818 20.683 -1.85431
    endloop
  endfacet
  facet normal 0 -0.11824 0.992985
    outer loop
      vertex 21.7818 20.683 -1.85431
      vertex 16.7818 20.683 -1.85431
      vertex 21.7818 20.4083 -1.88702
    endloop
  endfacet
  facet normal 0 -0.11824 0.992985
    outer loop
      vertex 21.7818 20.4083 -1.88702
      vertex 16.7818 20.683 -1.85431
      vertex 16.7818 20.4083 -1.88702
    endloop
  endfacet
  facet normal 0 0.0395133 0.999219
    outer loop
      vertex 21.7818 20.9594 -1.84338
      vertex 21.7818 21.2358 -1.85431
      vertex 16.7818 21.2358 -1.85431
    endloop
  endfacet
  facet normal -0 0.11824 0.992985
    outer loop
      vertex 16.7818 21.2358 -1.85431
      vertex 21.7818 21.2358 -1.85431
      vertex 16.7818 21.5105 -1.88702
    endloop
  endfacet
  facet normal 0 0.11824 0.992985
    outer loop
      vertex 16.7818 21.2358 -1.85431
      vertex 16.7818 21.5105 -1.88702
      vertex 11.7818 21.5105 -1.88702
    endloop
  endfacet
  facet normal -0 0.196429 0.980518
    outer loop
      vertex 11.7818 21.5105 -1.88702
      vertex 16.7818 21.5105 -1.88702
      vertex 21.7818 21.7817 -1.94135
    endloop
  endfacet
  facet normal 0 0.196429 0.980518
    outer loop
      vertex 11.7818 21.5105 -1.88702
      vertex 21.7818 21.7817 -1.94135
      vertex -3.21823 21.7817 -1.94135
    endloop
  endfacet
  facet normal 0 0.11824 0.992985
    outer loop
      vertex 21.7818 21.2358 -1.85431
      vertex 21.7818 21.5105 -1.88702
      vertex 16.7818 21.5105 -1.88702
    endloop
  endfacet
  facet normal -0 0.196429 0.980518
    outer loop
      vertex 16.7818 21.5105 -1.88702
      vertex 21.7818 21.5105 -1.88702
      vertex 21.7818 21.7817 -1.94135
    endloop
  endfacet
  facet normal 0 -0.0395133 0.999219
    outer loop
      vertex -3.21823 20.9594 -1.84338
      vertex -3.21823 20.683 -1.85431
      vertex 1.78177 20.683 -1.85431
    endloop
  endfacet
  facet normal 0 -0.11824 0.992985
    outer loop
      vertex 1.78177 20.683 -1.85431
      vertex -3.21823 20.683 -1.85431
      vertex 1.78177 20.4083 -1.88702
    endloop
  endfacet
  facet normal 0 -0.11824 0.992985
    outer loop
      vertex 1.78177 20.683 -1.85431
      vertex 1.78177 20.4083 -1.88702
      vertex 6.78177 20.4083 -1.88702
    endloop
  endfacet
  facet normal 0 -0.196429 0.980518
    outer loop
      vertex 6.78177 20.4083 -1.88702
      vertex 1.78177 20.4083 -1.88702
      vertex -3.21823 20.1371 -1.94135
    endloop
  endfacet
  facet normal 0 -0.196429 0.980518
    outer loop
      vertex 6.78177 20.4083 -1.88702
      vertex -3.21823 20.1371 -1.94135
      vertex 21.7818 20.1371 -1.94135
    endloop
  endfacet
  facet normal 0 -0.11824 0.992985
    outer loop
      vertex -3.21823 20.683 -1.85431
      vertex -3.21823 20.4083 -1.88702
      vertex 1.78177 20.4083 -1.88702
    endloop
  endfacet
  facet normal 0 -0.196429 0.980518
    outer loop
      vertex 1.78177 20.4083 -1.88702
      vertex -3.21823 20.4083 -1.88702
      vertex -3.21823 20.1371 -1.94135
    endloop
  endfacet
  facet normal 0 -0.11824 0.992985
    outer loop
      vertex 11.7818 20.4083 -1.88702
      vertex 16.7818 20.4083 -1.88702
      vertex 11.7818 20.683 -1.85431
    endloop
  endfacet
  facet normal 0 -0.11824 0.992985
    outer loop
      vertex 11.7818 20.683 -1.85431
      vertex 16.7818 20.4083 -1.88702
      vertex 16.7818 20.683 -1.85431
    endloop
  endfacet
  facet normal 0 -0.0395133 0.999219
    outer loop
      vertex 11.7818 20.683 -1.85431
      vertex 16.7818 20.683 -1.85431
      vertex 11.7818 20.9594 -1.84338
    endloop
  endfacet
  facet normal 0 -0.0395133 0.999219
    outer loop
      vertex 11.7818 20.9594 -1.84338
      vertex 16.7818 20.683 -1.85431
      vertex 16.7818 20.9594 -1.84338
    endloop
  endfacet
  facet normal -0 0.0395133 0.999219
    outer loop
      vertex 11.7818 20.9594 -1.84338
      vertex 16.7818 20.9594 -1.84338
      vertex 11.7818 21.2358 -1.85431
    endloop
  endfacet
  facet normal 0 -0.11824 0.992985
    outer loop
      vertex 11.7818 20.4083 -1.88702
      vertex 11.7818 20.683 -1.85431
      vertex 6.78177 20.683 -1.85431
    endloop
  endfacet
  facet normal 0 -0.0395133 0.999219
    outer loop
      vertex 6.78177 20.683 -1.85431
      vertex 11.7818 20.683 -1.85431
      vertex 6.78177 20.9594 -1.84338
    endloop
  endfacet
  facet normal 0 -0.0395133 0.999219
    outer loop
      vertex 6.78177 20.683 -1.85431
      vertex 6.78177 20.9594 -1.84338
      vertex 1.78177 20.9594 -1.84338
    endloop
  endfacet
  facet normal -0 0.0395133 0.999219
    outer loop
      vertex 1.78177 20.9594 -1.84338
      vertex 6.78177 20.9594 -1.84338
      vertex 1.78177 21.2358 -1.85431
    endloop
  endfacet
  facet normal 0 -0.0395133 0.999219
    outer loop
      vertex 6.78177 20.9594 -1.84338
      vertex 11.7818 20.683 -1.85431
      vertex 11.7818 20.9594 -1.84338
    endloop
  endfacet
  facet normal -0 0.0395133 0.999219
    outer loop
      vertex 6.78177 20.9594 -1.84338
      vertex 11.7818 20.9594 -1.84338
      vertex 6.78177 21.2358 -1.85431
    endloop
  endfacet
  facet normal -0 0.0395133 0.999219
    outer loop
      vertex 6.78177 21.2358 -1.85431
      vertex 11.7818 20.9594 -1.84338
      vertex 11.7818 21.2358 -1.85431
    endloop
  endfacet
  facet normal -0 0.11824 0.992985
    outer loop
      vertex 6.78177 21.2358 -1.85431
      vertex 11.7818 21.2358 -1.85431
      vertex 6.78177 21.5105 -1.88702
    endloop
  endfacet
  facet normal 0 0.11824 0.992985
    outer loop
      vertex 1.78177 21.5105 -1.88702
      vertex 1.78177 21.2358 -1.85431
      vertex 6.78177 21.2358 -1.85431
    endloop
  endfacet
  facet normal 0 0.0395133 0.999219
    outer loop
      vertex 6.78177 21.2358 -1.85431
      vertex 1.78177 21.2358 -1.85431
      vertex 6.78177 20.9594 -1.84338
    endloop
  endfacet
  facet normal -0 0.11824 0.992985
    outer loop
      vertex 1.78177 21.5105 -1.88702
      vertex 6.78177 21.2358 -1.85431
      vertex 6.78177 21.5105 -1.88702
    endloop
  endfacet
  facet normal -1 0 0
    outer loop
      vertex -3.21823 20.1371 -1.94135
      vertex -3.21823 20.4083 -1.88702
      vertex -3.21823 21.7817 -1.94135
    endloop
  endfacet
  facet normal -1 0 0
    outer loop
      vertex -3.21823 21.7817 -1.94135
      vertex -3.21823 20.4083 -1.88702
      vertex -3.21823 21.5105 -1.88702
    endloop
  endfacet
  facet normal -1 0 0
    outer loop
      vertex -3.21823 21.5105 -1.88702
      vertex -3.21823 20.4083 -1.88702
      vertex -3.21823 21.2358 -1.85431
    endloop
  endfacet
  facet normal -1 -0 0
    outer loop
      vertex -3.21823 21.2358 -1.85431
      vertex -3.21823 20.4083 -1.88702
      vertex -3.21823 20.683 -1.85431
    endloop
  endfacet
  facet normal -1 0 0
    outer loop
      vertex -3.21823 21.2358 -1.85431
      vertex -3.21823 20.683 -1.85431
      vertex -3.21823 20.9594 -1.84338
    endloop
  endfacet
  facet normal -0 0 1
    outer loop
      vertex -13.2817 18.2817 4.94147
      vertex -18.2817 13.2817 4.94147
      vertex 21.0746 18.2817 4.94147
    endloop
  endfacet
  facet normal 0 0 1
    outer loop
      vertex 21.0746 18.2817 4.94147
      vertex -18.2817 13.2817 4.94147
      vertex -18.2817 -21.0746 4.94147
    endloop
  endfacet
endsolid OpenSCAD_Model
