solid OpenSCAD_Model
  facet normal 0 0 1
    outer loop
      vertex 19.9818 20.0818 -3.54141
      vertex 18.2817 21.7817 -3.54141
      vertex -21.7817 20.0818 -3.54141
    endloop
  endfacet
  facet normal 0 0 1
    outer loop
      vertex -21.7817 20.0818 -3.54141
      vertex 18.2817 21.7817 -3.54141
      vertex -21.7817 21.7817 -3.54141
    endloop
  endfacet
  facet normal 0 1 0
    outer loop
      vertex 19.9818 20.0818 -3.59143
      vertex 19.9818 20.0818 -3.54141
      vertex 20.0818 20.0818 -3.59143
    endloop
  endfacet
  facet normal 0 1 -0
    outer loop
      vertex 20.0818 20.0818 -3.59143
      vertex 19.9818 20.0818 -3.54141
      vertex 20.0818 20.0818 -3.29141
    endloop
  endfacet
  facet normal 0 1 0
    outer loop
      vertex 20.0818 20.0818 -3.29141
      vertex 19.9818 20.0818 -3.54141
      vertex 19.9818 20.0818 -3.29141
    endloop
  endfacet
  facet normal 0 1 0
    outer loop
      vertex 19.9818 20.0818 -3.29141
      vertex 19.9818 20.0818 -3.54141
      vertex -21.7817 20.0818 -3.29141
    endloop
  endfacet
  facet normal 0 1 0
    outer loop
      vertex -21.7817 20.0818 -3.29141
      vertex 19.9818 20.0818 -3.54141
      vertex -21.7817 20.0818 -3.54141
    endloop
  endfacet
  facet normal -0.707107 -0.707107 -0
    outer loop
      vertex 18.2817 -21.0746 4.09149
      vertex -21.0746 18.2817 4.09149
      vertex 18.2817 -21.0746 -2.79132
    endloop
  endfacet
  facet normal -0.707107 -0.707107 0
    outer loop
      vertex 18.2817 -21.0746 -2.79132
      vertex -21.0746 18.2817 4.09149
      vertex -21.0746 18.2817 -2.79132
    endloop
  endfacet
  facet normal -0.707107 -0.707107 -5.43845e-05
    outer loop
      vertex 18.2817 -21.0746 -2.79132
      vertex -21.0746 18.2817 -2.79132
      vertex 18.9889 -21.7817 -4.09152
    endloop
  endfacet
  facet normal -0.707107 -0.707107 -5.43845e-05
    outer loop
      vertex 18.9889 -21.7817 -4.09152
      vertex -21.0746 18.2817 -2.79132
      vertex -21.7817 18.9889 -4.09152
    endloop
  endfacet
  facet normal -0.707157 -0.707057 0
    outer loop
      vertex -21.7817 18.9889 -4.09152
      vertex -21.0746 18.2817 -2.79132
      vertex -21.7817 18.9889 -2.79132
    endloop
  endfacet
  facet normal -0.707057 -0.707157 0
    outer loop
      vertex 18.9889 -21.7817 -4.09152
      vertex 18.9889 -21.7817 -2.79132
      vertex 18.2817 -21.0746 -2.79132
    endloop
  endfacet
  facet normal 0 0 -1
    outer loop
      vertex 20.0818 19.9818 -3.59143
      vertex 19.9818 20.0818 -3.59143
      vertex 20.0818 20.0818 -3.59143
    endloop
  endfacet
  facet normal -0 0 1
    outer loop
      vertex 19.9818 20.0818 -3.29141
      vertex 20.0818 19.9818 -3.29141
      vertex 20.0818 20.0818 -3.29141
    endloop
  endfacet
  facet normal 1 0 -0
    outer loop
      vertex 20.0818 20.0818 -3.59143
      vertex 20.0818 20.0818 -3.29141
      vertex 20.0818 19.9818 -3.59143
    endloop
  endfacet
  facet normal 1 0 0
    outer loop
      vertex 20.0818 19.9818 -3.59143
      vertex 20.0818 20.0818 -3.29141
      vertex 20.0818 19.9818 -3.29141
    endloop
  endfacet
  facet normal 1 0 -0
    outer loop
      vertex 20.0818 19.9818 -3.59143
      vertex 20.0818 19.9818 -3.29141
      vertex 20.0818 -21.7817 -3.59143
    endloop
  endfacet
  facet normal 1 0 0
    outer loop
      vertex 20.0818 -21.7817 -3.59143
      vertex 20.0818 19.9818 -3.29141
      vertex 20.0818 -21.7817 -3.29141
    endloop
  endfacet
  facet normal 0 0 -1
    outer loop
      vertex 19.9818 20.0818 -3.29141
      vertex -21.7817 20.0818 -3.29141
      vertex 18.2817 21.7817 -3.29141
    endloop
  endfacet
  facet normal -0 0 -1
    outer loop
      vertex 18.2817 21.7817 -3.29141
      vertex -21.7817 20.0818 -3.29141
      vertex -21.7817 21.7817 -3.29141
    endloop
  endfacet
  facet normal 0.707107 0.707107 -0.000282792
    outer loop
      vertex 20.0818 19.9818 -3.59143
      vertex 18.2817 21.7817 -4.09152
      vertex 19.9818 20.0818 -3.59143
    endloop
  endfacet
  facet normal 0.707065 0.707148 0
    outer loop
      vertex 19.9818 20.0818 -3.59143
      vertex 18.2817 21.7817 -4.09152
      vertex 18.2817 21.7817 -3.54141
    endloop
  endfacet
  facet normal 0.707065 0.707148 -0
    outer loop
      vertex 19.9818 20.0818 -3.59143
      vertex 18.2817 21.7817 -3.54141
      vertex 19.9818 20.0818 -3.54141
    endloop
  endfacet
  facet normal 0.707148 0.707065 0
    outer loop
      vertex 21.7817 18.2817 -3.59143
      vertex 21.7817 18.2817 -4.09152
      vertex 20.0818 19.9818 -3.59143
    endloop
  endfacet
  facet normal 0.707107 0.707107 -0.000282792
    outer loop
      vertex 20.0818 19.9818 -3.59143
      vertex 21.7817 18.2817 -4.09152
      vertex 18.2817 21.7817 -4.09152
    endloop
  endfacet
  facet normal 0.707148 0.707065 -0
    outer loop
      vertex 21.7817 18.2817 -3.29141
      vertex 20.0818 19.9818 -3.29141
      vertex 21.7817 18.2817 -2.79132
    endloop
  endfacet
  facet normal 0.707107 0.707107 0.000282792
    outer loop
      vertex 21.7817 18.2817 -2.79132
      vertex 20.0818 19.9818 -3.29141
      vertex 18.2817 21.7817 -2.79132
    endloop
  endfacet
  facet normal 0.707107 0.707107 0.000282792
    outer loop
      vertex 18.2817 21.7817 -2.79132
      vertex 20.0818 19.9818 -3.29141
      vertex 19.9818 20.0818 -3.29141
    endloop
  endfacet
  facet normal 0.707065 0.707148 0
    outer loop
      vertex 18.2817 21.7817 -2.79132
      vertex 19.9818 20.0818 -3.29141
      vertex 18.2817 21.7817 -3.29141
    endloop
  endfacet
  facet normal 1 -0 0
    outer loop
      vertex 21.7817 -21.7817 -3.59143
      vertex 21.7817 -21.7817 -4.09152
      vertex 21.7817 18.2817 -3.59143
    endloop
  endfacet
  facet normal 1 0 0
    outer loop
      vertex 21.7817 18.2817 -3.59143
      vertex 21.7817 -21.7817 -4.09152
      vertex 21.7817 18.2817 -4.09152
    endloop
  endfacet
  facet normal -0 -1 0
    outer loop
      vertex 20.1371 -21.7817 -2.79132
      vertex 18.9889 -21.7817 -2.79132
      vertex 20.0818 -21.7817 -3.29141
    endloop
  endfacet
  facet normal -0 -1 0
    outer loop
      vertex 20.0818 -21.7817 -3.29141
      vertex 18.9889 -21.7817 -2.79132
      vertex 18.9889 -21.7817 -4.09152
    endloop
  endfacet
  facet normal 0 -1 -0
    outer loop
      vertex 20.0818 -21.7817 -3.29141
      vertex 18.9889 -21.7817 -4.09152
      vertex 20.0818 -21.7817 -3.59143
    endloop
  endfacet
  facet normal 0 -1 -0
    outer loop
      vertex 20.0818 -21.7817 -3.59143
      vertex 18.9889 -21.7817 -4.09152
      vertex 21.7817 -21.7817 -4.09152
    endloop
  endfacet
  facet normal 0 -1 0
    outer loop
      vertex 20.0818 -21.7817 -3.59143
      vertex 21.7817 -21.7817 -4.09152
      vertex 21.7817 -21.7817 -3.59143
    endloop
  endfacet
  facet normal 0 -1 0
    outer loop
      vertex 21.7817 -21.7817 -3.29141
      vertex 20.9594 -21.7817 -2.69336
      vertex 20.0818 -21.7817 -3.29141
    endloop
  endfacet
  facet normal 0 -1 0
    outer loop
      vertex 20.0818 -21.7817 -3.29141
      vertex 20.9594 -21.7817 -2.69336
      vertex 20.683 -21.7817 -2.70428
    endloop
  endfacet
  facet normal 0 -1 0
    outer loop
      vertex 20.0818 -21.7817 -3.29141
      vertex 20.683 -21.7817 -2.70428
      vertex 20.4083 -21.7817 -2.737
    endloop
  endfacet
  facet normal -0 -1 -0
    outer loop
      vertex 21.7817 -21.7817 -2.79132
      vertex 21.5105 -21.7817 -2.737
      vertex 21.7817 -21.7817 -3.29141
    endloop
  endfacet
  facet normal 0 -1 0
    outer loop
      vertex 21.7817 -21.7817 -3.29141
      vertex 21.5105 -21.7817 -2.737
      vertex 21.2358 -21.7817 -2.70428
    endloop
  endfacet
  facet normal 0 -1 0
    outer loop
      vertex 21.7817 -21.7817 -3.29141
      vertex 21.2358 -21.7817 -2.70428
      vertex 20.9594 -21.7817 -2.69336
    endloop
  endfacet
  facet normal 0 -1 0
    outer loop
      vertex 20.4083 -21.7817 -2.737
      vertex 20.1371 -21.7817 -2.79132
      vertex 20.0818 -21.7817 -3.29141
    endloop
  endfacet
  facet normal 0 0 -1
    outer loop
      vertex 20.0818 19.9818 -3.29141
      vertex 21.7817 18.2817 -3.29141
      vertex 20.0818 -21.7817 -3.29141
    endloop
  endfacet
  facet normal 0 0 -1
    outer loop
      vertex 20.0818 -21.7817 -3.29141
      vertex 21.7817 18.2817 -3.29141
      vertex 21.7817 -21.7817 -3.29141
    endloop
  endfacet
  facet normal 0 0 1
    outer loop
      vertex 20.0818 19.9818 -3.59143
      vertex 20.0818 -21.7817 -3.59143
      vertex 21.7817 18.2817 -3.59143
    endloop
  endfacet
  facet normal 0 0 1
    outer loop
      vertex 21.7817 18.2817 -3.59143
      vertex 20.0818 -21.7817 -3.59143
      vertex 21.7817 -21.7817 -3.59143
    endloop
  endfacet
  facet normal 0 1 0
    outer loop
      vertex 18.2817 21.7817 -3.54141
      vertex 18.2817 21.7817 -4.09152
      vertex -21.7817 21.7817 -3.54141
    endloop
  endfacet
  facet normal 0 1 0
    outer loop
      vertex -21.7817 21.7817 -3.54141
      vertex 18.2817 21.7817 -4.09152
      vertex -21.7817 21.7817 -4.09152
    endloop
  endfacet
  facet normal 0 1 0
    outer loop
      vertex 18.2817 21.7817 -2.79132
      vertex 18.2817 21.7817 -3.29141
      vertex 3.21825 21.7817 -2.79132
    endloop
  endfacet
  facet normal 0 1 0
    outer loop
      vertex 3.21825 21.7817 -2.79132
      vertex 18.2817 21.7817 -3.29141
      vertex -21.7817 21.7817 -3.29141
    endloop
  endfacet
  facet normal 0 1 0
    outer loop
      vertex 3.21825 21.7817 -2.79132
      vertex -21.7817 21.7817 -3.29141
      vertex -21.7817 21.7817 -2.79132
    endloop
  endfacet
  facet normal -1 0 0
    outer loop
      vertex -21.7817 20.0818 -3.29141
      vertex -21.7817 20.9594 -2.69336
      vertex -21.7817 21.7817 -3.29141
    endloop
  endfacet
  facet normal -1 0 0
    outer loop
      vertex -21.7817 21.7817 -3.29141
      vertex -21.7817 20.9594 -2.69336
      vertex -21.7817 21.2358 -2.70428
    endloop
  endfacet
  facet normal -1 0 0
    outer loop
      vertex -21.7817 21.7817 -3.29141
      vertex -21.7817 21.2358 -2.70428
      vertex -21.7817 21.5105 -2.737
    endloop
  endfacet
  facet normal -1 0 0
    outer loop
      vertex -21.7817 20.0818 -3.54141
      vertex -21.7817 18.9889 -2.79132
      vertex -21.7817 20.0818 -3.29141
    endloop
  endfacet
  facet normal -1 0 0
    outer loop
      vertex -21.7817 20.0818 -3.29141
      vertex -21.7817 18.9889 -2.79132
      vertex -21.7817 20.1371 -2.79132
    endloop
  endfacet
  facet normal -1 0 0
    outer loop
      vertex -21.7817 20.0818 -3.29141
      vertex -21.7817 20.1371 -2.79132
      vertex -21.7817 20.4083 -2.737
    endloop
  endfacet
  facet normal -1 -0 -0
    outer loop
      vertex -21.7817 21.7817 -3.54141
      vertex -21.7817 21.7817 -4.09152
      vertex -21.7817 20.0818 -3.54141
    endloop
  endfacet
  facet normal -1 0 -0
    outer loop
      vertex -21.7817 20.0818 -3.54141
      vertex -21.7817 21.7817 -4.09152
      vertex -21.7817 18.9889 -4.09152
    endloop
  endfacet
  facet normal -1 -0 0
    outer loop
      vertex -21.7817 20.0818 -3.54141
      vertex -21.7817 18.9889 -4.09152
      vertex -21.7817 18.9889 -2.79132
    endloop
  endfacet
  facet normal -1 0 -0
    outer loop
      vertex -21.7817 20.4083 -2.737
      vertex -21.7817 20.683 -2.70428
      vertex -21.7817 20.0818 -3.29141
    endloop
  endfacet
  facet normal -1 0 0
    outer loop
      vertex -21.7817 20.0818 -3.29141
      vertex -21.7817 20.683 -2.70428
      vertex -21.7817 20.9594 -2.69336
    endloop
  endfacet
  facet normal -1 0 0
    outer loop
      vertex -21.7817 21.5105 -2.737
      vertex -21.7817 21.7817 -2.79132
      vertex -21.7817 21.7817 -3.29141
    endloop
  endfacet
  facet normal 0.707107 0.707107 0
    outer loop
      vertex 18.2817 13.2817 4.09149
      vertex 18.2817 13.2817 -2.79132
      vertex 13.2817 18.2817 4.09149
    endloop
  endfacet
  facet normal 0.707107 0.707107 0
    outer loop
      vertex 13.2817 18.2817 4.09149
      vertex 18.2817 13.2817 -2.79132
      vertex 13.2817 18.2817 -2.79132
    endloop
  endfacet
  facet normal 0 1 -0
    outer loop
      vertex 13.2817 18.2817 -2.79132
      vertex -21.0746 18.2817 -2.79132
      vertex 13.2817 18.2817 4.09149
    endloop
  endfacet
  facet normal 0 1 0
    outer loop
      vertex 13.2817 18.2817 4.09149
      vertex -21.0746 18.2817 -2.79132
      vertex -21.0746 18.2817 4.09149
    endloop
  endfacet
  facet normal -0.196394 0 0.980525
    outer loop
      vertex 20.4083 -21.7817 -2.737
      vertex 20.4083 -16.7817 -2.737
      vertex 20.1371 -21.7817 -2.79132
    endloop
  endfacet
  facet normal -0.196394 0 0.980525
    outer loop
      vertex 20.1371 -21.7817 -2.79132
      vertex 20.4083 -16.7817 -2.737
      vertex 20.4083 -11.7817 -2.737
    endloop
  endfacet
  facet normal -0.196394 0 0.980525
    outer loop
      vertex 20.1371 -21.7817 -2.79132
      vertex 20.4083 -11.7817 -2.737
      vertex 20.4083 -6.78174 -2.737
    endloop
  endfacet
  facet normal -0.118276 0 0.992981
    outer loop
      vertex 20.4083 -6.78174 -2.737
      vertex 20.4083 -11.7817 -2.737
      vertex 20.683 -6.78174 -2.70428
    endloop
  endfacet
  facet normal -0.118276 0 0.992981
    outer loop
      vertex 20.4083 -6.78174 -2.737
      vertex 20.683 -6.78174 -2.70428
      vertex 20.683 -1.78174 -2.70428
    endloop
  endfacet
  facet normal -0.0394772 0 0.99922
    outer loop
      vertex 20.683 -1.78174 -2.70428
      vertex 20.683 -6.78174 -2.70428
      vertex 20.9594 -1.78174 -2.69336
    endloop
  endfacet
  facet normal -0.0394772 0 0.99922
    outer loop
      vertex 20.683 -1.78174 -2.70428
      vertex 20.9594 -1.78174 -2.69336
      vertex 20.9594 3.21826 -2.69336
    endloop
  endfacet
  facet normal 0.0394772 0 0.99922
    outer loop
      vertex 20.9594 3.21826 -2.69336
      vertex 20.9594 -1.78174 -2.69336
      vertex 21.2358 3.21826 -2.70428
    endloop
  endfacet
  facet normal 0.0394772 0 0.99922
    outer loop
      vertex 21.2358 3.21826 -2.70428
      vertex 20.9594 -1.78174 -2.69336
      vertex 21.2358 -1.78174 -2.70428
    endloop
  endfacet
  facet normal 0.118276 0 0.992981
    outer loop
      vertex 21.2358 3.21826 -2.70428
      vertex 21.2358 -1.78174 -2.70428
      vertex 21.5105 3.21826 -2.737
    endloop
  endfacet
  facet normal 0.118276 0 0.992981
    outer loop
      vertex 21.5105 3.21826 -2.737
      vertex 21.2358 -1.78174 -2.70428
      vertex 21.5105 -1.78174 -2.737
    endloop
  endfacet
  facet normal 0.196394 0 0.980525
    outer loop
      vertex 21.5105 3.21826 -2.737
      vertex 21.5105 -1.78174 -2.737
      vertex 21.7817 3.21826 -2.79132
    endloop
  endfacet
  facet normal 0.196394 0 0.980525
    outer loop
      vertex 21.7817 3.21826 -2.79132
      vertex 21.5105 -1.78174 -2.737
      vertex 21.5105 -6.78174 -2.737
    endloop
  endfacet
  facet normal 0.196394 0 0.980525
    outer loop
      vertex 21.7817 3.21826 -2.79132
      vertex 21.5105 -6.78174 -2.737
      vertex 21.5105 -11.7817 -2.737
    endloop
  endfacet
  facet normal 0.118276 -0 0.992981
    outer loop
      vertex 21.5105 -11.7817 -2.737
      vertex 21.5105 -6.78174 -2.737
      vertex 21.2358 -11.7817 -2.70428
    endloop
  endfacet
  facet normal 0.118276 0 0.992981
    outer loop
      vertex 21.5105 -11.7817 -2.737
      vertex 21.2358 -11.7817 -2.70428
      vertex 21.2358 -16.7817 -2.70428
    endloop
  endfacet
  facet normal 0.0394772 -0 0.99922
    outer loop
      vertex 21.2358 -16.7817 -2.70428
      vertex 21.2358 -11.7817 -2.70428
      vertex 20.9594 -16.7817 -2.69336
    endloop
  endfacet
  facet normal 0.0394772 0 0.99922
    outer loop
      vertex 21.2358 -16.7817 -2.70428
      vertex 20.9594 -16.7817 -2.69336
      vertex 20.9594 -21.7817 -2.69336
    endloop
  endfacet
  facet normal -0.0394772 0 0.99922
    outer loop
      vertex 20.9594 -21.7817 -2.69336
      vertex 20.9594 -16.7817 -2.69336
      vertex 20.683 -21.7817 -2.70428
    endloop
  endfacet
  facet normal -0.0394772 0 0.99922
    outer loop
      vertex 20.683 -21.7817 -2.70428
      vertex 20.9594 -16.7817 -2.69336
      vertex 20.683 -16.7817 -2.70428
    endloop
  endfacet
  facet normal -0.118276 0 0.992981
    outer loop
      vertex 20.683 -21.7817 -2.70428
      vertex 20.683 -16.7817 -2.70428
      vertex 20.4083 -21.7817 -2.737
    endloop
  endfacet
  facet normal -0.118276 0 0.992981
    outer loop
      vertex 20.4083 -21.7817 -2.737
      vertex 20.683 -16.7817 -2.70428
      vertex 20.4083 -16.7817 -2.737
    endloop
  endfacet
  facet normal 0.0394772 0 0.99922
    outer loop
      vertex 20.9594 -21.7817 -2.69336
      vertex 21.2358 -21.7817 -2.70428
      vertex 21.2358 -16.7817 -2.70428
    endloop
  endfacet
  facet normal 0.118276 0 0.992981
    outer loop
      vertex 21.2358 -16.7817 -2.70428
      vertex 21.2358 -21.7817 -2.70428
      vertex 21.5105 -16.7817 -2.737
    endloop
  endfacet
  facet normal 0.118276 0 0.992981
    outer loop
      vertex 21.2358 -16.7817 -2.70428
      vertex 21.5105 -16.7817 -2.737
      vertex 21.5105 -11.7817 -2.737
    endloop
  endfacet
  facet normal 0.196394 0 0.980525
    outer loop
      vertex 21.5105 -11.7817 -2.737
      vertex 21.5105 -16.7817 -2.737
      vertex 21.7817 -21.7817 -2.79132
    endloop
  endfacet
  facet normal 0.196394 0 0.980525
    outer loop
      vertex 21.5105 -11.7817 -2.737
      vertex 21.7817 -21.7817 -2.79132
      vertex 21.7817 3.21826 -2.79132
    endloop
  endfacet
  facet normal 0.118276 0 0.992981
    outer loop
      vertex 21.2358 -21.7817 -2.70428
      vertex 21.5105 -21.7817 -2.737
      vertex 21.5105 -16.7817 -2.737
    endloop
  endfacet
  facet normal 0.196394 0 0.980525
    outer loop
      vertex 21.5105 -16.7817 -2.737
      vertex 21.5105 -21.7817 -2.737
      vertex 21.7817 -21.7817 -2.79132
    endloop
  endfacet
  facet normal -0.0394772 0 0.99922
    outer loop
      vertex 20.9594 3.21826 -2.69336
      vertex 20.683 3.21826 -2.70428
      vertex 20.683 -1.78174 -2.70428
    endloop
  endfacet
  facet normal -0.118276 0 0.992981
    outer loop
      vertex 20.683 -1.78174 -2.70428
      vertex 20.683 3.21826 -2.70428
      vertex 20.4083 -1.78174 -2.737
    endloop
  endfacet
  facet normal -0.118276 0 0.992981
    outer loop
      vertex 20.683 -1.78174 -2.70428
      vertex 20.4083 -1.78174 -2.737
      vertex 20.4083 -6.78174 -2.737
    endloop
  endfacet
  facet normal -0.196394 0 0.980525
    outer loop
      vertex 20.4083 -6.78174 -2.737
      vertex 20.4083 -1.78174 -2.737
      vertex 20.1371 3.21826 -2.79132
    endloop
  endfacet
  facet normal -0.196394 0 0.980525
    outer loop
      vertex 20.4083 -6.78174 -2.737
      vertex 20.1371 3.21826 -2.79132
      vertex 20.1371 -21.7817 -2.79132
    endloop
  endfacet
  facet normal -0.118276 0 0.992981
    outer loop
      vertex 20.683 3.21826 -2.70428
      vertex 20.4083 3.21826 -2.737
      vertex 20.4083 -1.78174 -2.737
    endloop
  endfacet
  facet normal -0.196394 0 0.980525
    outer loop
      vertex 20.4083 -1.78174 -2.737
      vertex 20.4083 3.21826 -2.737
      vertex 20.1371 3.21826 -2.79132
    endloop
  endfacet
  facet normal -0.118276 0 0.992981
    outer loop
      vertex 20.4083 -11.7817 -2.737
      vertex 20.4083 -16.7817 -2.737
      vertex 20.683 -11.7817 -2.70428
    endloop
  endfacet
  facet normal -0.118276 0 0.992981
    outer loop
      vertex 20.683 -11.7817 -2.70428
      vertex 20.4083 -16.7817 -2.737
      vertex 20.683 -16.7817 -2.70428
    endloop
  endfacet
  facet normal -0.0394772 0 0.99922
    outer loop
      vertex 20.683 -11.7817 -2.70428
      vertex 20.683 -16.7817 -2.70428
      vertex 20.9594 -11.7817 -2.69336
    endloop
  endfacet
  facet normal -0.0394772 0 0.99922
    outer loop
      vertex 20.9594 -11.7817 -2.69336
      vertex 20.683 -16.7817 -2.70428
      vertex 20.9594 -16.7817 -2.69336
    endloop
  endfacet
  facet normal 0.0394772 0 0.99922
    outer loop
      vertex 20.9594 -11.7817 -2.69336
      vertex 20.9594 -16.7817 -2.69336
      vertex 21.2358 -11.7817 -2.70428
    endloop
  endfacet
  facet normal -0.118276 0 0.992981
    outer loop
      vertex 20.4083 -11.7817 -2.737
      vertex 20.683 -11.7817 -2.70428
      vertex 20.683 -6.78174 -2.70428
    endloop
  endfacet
  facet normal -0.0394772 0 0.99922
    outer loop
      vertex 20.683 -6.78174 -2.70428
      vertex 20.683 -11.7817 -2.70428
      vertex 20.9594 -6.78174 -2.69336
    endloop
  endfacet
  facet normal -0.0394772 0 0.99922
    outer loop
      vertex 20.683 -6.78174 -2.70428
      vertex 20.9594 -6.78174 -2.69336
      vertex 20.9594 -1.78174 -2.69336
    endloop
  endfacet
  facet normal 0.0394772 0 0.99922
    outer loop
      vertex 20.9594 -1.78174 -2.69336
      vertex 20.9594 -6.78174 -2.69336
      vertex 21.2358 -1.78174 -2.70428
    endloop
  endfacet
  facet normal -0.0394772 0 0.99922
    outer loop
      vertex 20.9594 -6.78174 -2.69336
      vertex 20.683 -11.7817 -2.70428
      vertex 20.9594 -11.7817 -2.69336
    endloop
  endfacet
  facet normal 0.0394772 0 0.99922
    outer loop
      vertex 20.9594 -6.78174 -2.69336
      vertex 20.9594 -11.7817 -2.69336
      vertex 21.2358 -6.78174 -2.70428
    endloop
  endfacet
  facet normal 0.0394772 0 0.99922
    outer loop
      vertex 21.2358 -6.78174 -2.70428
      vertex 20.9594 -11.7817 -2.69336
      vertex 21.2358 -11.7817 -2.70428
    endloop
  endfacet
  facet normal 0.118276 0 0.992981
    outer loop
      vertex 21.2358 -6.78174 -2.70428
      vertex 21.2358 -11.7817 -2.70428
      vertex 21.5105 -6.78174 -2.737
    endloop
  endfacet
  facet normal 0.118276 0 0.992981
    outer loop
      vertex 21.5105 -1.78174 -2.737
      vertex 21.2358 -1.78174 -2.70428
      vertex 21.2358 -6.78174 -2.70428
    endloop
  endfacet
  facet normal 0.0394772 -0 0.99922
    outer loop
      vertex 21.2358 -6.78174 -2.70428
      vertex 21.2358 -1.78174 -2.70428
      vertex 20.9594 -6.78174 -2.69336
    endloop
  endfacet
  facet normal 0.118276 0 0.992981
    outer loop
      vertex 21.5105 -1.78174 -2.737
      vertex 21.2358 -6.78174 -2.70428
      vertex 21.5105 -6.78174 -2.737
    endloop
  endfacet
  facet normal 0 1 0
    outer loop
      vertex 20.1371 3.21826 -2.79132
      vertex 20.4083 3.21826 -2.737
      vertex 21.7817 3.21826 -2.79132
    endloop
  endfacet
  facet normal 0 1 0
    outer loop
      vertex 21.7817 3.21826 -2.79132
      vertex 20.4083 3.21826 -2.737
      vertex 21.5105 3.21826 -2.737
    endloop
  endfacet
  facet normal 0 1 0
    outer loop
      vertex 21.5105 3.21826 -2.737
      vertex 20.4083 3.21826 -2.737
      vertex 21.2358 3.21826 -2.70428
    endloop
  endfacet
  facet normal 0 1 0
    outer loop
      vertex 21.2358 3.21826 -2.70428
      vertex 20.4083 3.21826 -2.737
      vertex 20.683 3.21826 -2.70428
    endloop
  endfacet
  facet normal 0 1 0
    outer loop
      vertex 21.2358 3.21826 -2.70428
      vertex 20.683 3.21826 -2.70428
      vertex 20.9594 3.21826 -2.69336
    endloop
  endfacet
  facet normal 0 -0 1
    outer loop
      vertex 18.9889 -21.7817 -2.79132
      vertex 20.1371 -21.7817 -2.79132
      vertex 18.2817 -21.0746 -2.79132
    endloop
  endfacet
  facet normal -0 0 1
    outer loop
      vertex 18.2817 -21.0746 -2.79132
      vertex 20.1371 -21.7817 -2.79132
      vertex 20.1371 3.21826 -2.79132
    endloop
  endfacet
  facet normal 0 0 1
    outer loop
      vertex 18.2817 -21.0746 -2.79132
      vertex 20.1371 3.21826 -2.79132
      vertex 18.2817 13.2817 -2.79132
    endloop
  endfacet
  facet normal 0 0 1
    outer loop
      vertex 18.2817 13.2817 -2.79132
      vertex 20.1371 3.21826 -2.79132
      vertex 21.7817 3.21826 -2.79132
    endloop
  endfacet
  facet normal -0 0 1
    outer loop
      vertex 18.2817 13.2817 -2.79132
      vertex 21.7817 3.21826 -2.79132
      vertex 21.7817 18.2817 -2.79132
    endloop
  endfacet
  facet normal 0 0 1
    outer loop
      vertex 21.7817 18.2817 -2.79132
      vertex 18.2817 21.7817 -2.79132
      vertex 18.2817 13.2817 -2.79132
    endloop
  endfacet
  facet normal 0 -0 1
    outer loop
      vertex 18.2817 13.2817 -2.79132
      vertex 18.2817 21.7817 -2.79132
      vertex 13.2817 18.2817 -2.79132
    endloop
  endfacet
  facet normal 0 -0 1
    outer loop
      vertex 13.2817 18.2817 -2.79132
      vertex 18.2817 21.7817 -2.79132
      vertex 3.21825 21.7817 -2.79132
    endloop
  endfacet
  facet normal 0 0 1
    outer loop
      vertex 13.2817 18.2817 -2.79132
      vertex 3.21825 21.7817 -2.79132
      vertex 3.21825 20.1371 -2.79132
    endloop
  endfacet
  facet normal 0 0 1
    outer loop
      vertex 13.2817 18.2817 -2.79132
      vertex 3.21825 20.1371 -2.79132
      vertex -21.0746 18.2817 -2.79132
    endloop
  endfacet
  facet normal 0 -0 1
    outer loop
      vertex -21.0746 18.2817 -2.79132
      vertex 3.21825 20.1371 -2.79132
      vertex -21.7817 20.1371 -2.79132
    endloop
  endfacet
  facet normal 0 0 1
    outer loop
      vertex -21.0746 18.2817 -2.79132
      vertex -21.7817 20.1371 -2.79132
      vertex -21.7817 18.9889 -2.79132
    endloop
  endfacet
  facet normal 1 0 0
    outer loop
      vertex 18.2817 -21.0746 -2.79132
      vertex 18.2817 13.2817 -2.79132
      vertex 18.2817 -21.0746 4.09149
    endloop
  endfacet
  facet normal 1 -0 0
    outer loop
      vertex 18.2817 -21.0746 4.09149
      vertex 18.2817 13.2817 -2.79132
      vertex 18.2817 13.2817 4.09149
    endloop
  endfacet
  facet normal 1 -0 0
    outer loop
      vertex 21.7817 -21.7817 -2.79132
      vertex 21.7817 -21.7817 -3.29141
      vertex 21.7817 3.21826 -2.79132
    endloop
  endfacet
  facet normal 1 0 0
    outer loop
      vertex 21.7817 3.21826 -2.79132
      vertex 21.7817 -21.7817 -3.29141
      vertex 21.7817 18.2817 -3.29141
    endloop
  endfacet
  facet normal 1 -0 0
    outer loop
      vertex 21.7817 3.21826 -2.79132
      vertex 21.7817 18.2817 -3.29141
      vertex 21.7817 18.2817 -2.79132
    endloop
  endfacet
  facet normal 0 0 -1
    outer loop
      vertex 21.7817 -21.7817 -4.09152
      vertex 18.9889 -21.7817 -4.09152
      vertex 21.7817 18.2817 -4.09152
    endloop
  endfacet
  facet normal -0 0 -1
    outer loop
      vertex 21.7817 18.2817 -4.09152
      vertex 18.9889 -21.7817 -4.09152
      vertex -21.7817 18.9889 -4.09152
    endloop
  endfacet
  facet normal 0 0 -1
    outer loop
      vertex 21.7817 18.2817 -4.09152
      vertex -21.7817 18.9889 -4.09152
      vertex 18.2817 21.7817 -4.09152
    endloop
  endfacet
  facet normal -0 0 -1
    outer loop
      vertex 18.2817 21.7817 -4.09152
      vertex -21.7817 18.9889 -4.09152
      vertex -21.7817 21.7817 -4.09152
    endloop
  endfacet
  facet normal -0 0.196394 0.980525
    outer loop
      vertex -21.7817 21.5105 -2.737
      vertex -16.7817 21.5105 -2.737
      vertex -21.7817 21.7817 -2.79132
    endloop
  endfacet
  facet normal 0 0.196394 0.980525
    outer loop
      vertex -21.7817 21.7817 -2.79132
      vertex -16.7817 21.5105 -2.737
      vertex -11.7817 21.5105 -2.737
    endloop
  endfacet
  facet normal 0 0.196394 0.980525
    outer loop
      vertex -21.7817 21.7817 -2.79132
      vertex -11.7817 21.5105 -2.737
      vertex -6.78175 21.5105 -2.737
    endloop
  endfacet
  facet normal 0 0.118276 0.992981
    outer loop
      vertex -6.78175 21.5105 -2.737
      vertex -11.7817 21.5105 -2.737
      vertex -6.78175 21.2358 -2.70428
    endloop
  endfacet
  facet normal 0 0.118276 0.992981
    outer loop
      vertex -6.78175 21.5105 -2.737
      vertex -6.78175 21.2358 -2.70428
      vertex -1.78175 21.2358 -2.70428
    endloop
  endfacet
  facet normal 0 0.0394772 0.99922
    outer loop
      vertex -1.78175 21.2358 -2.70428
      vertex -6.78175 21.2358 -2.70428
      vertex -1.78175 20.9594 -2.69336
    endloop
  endfacet
  facet normal 0 0.0394772 0.99922
    outer loop
      vertex -1.78175 21.2358 -2.70428
      vertex -1.78175 20.9594 -2.69336
      vertex 3.21825 20.9594 -2.69336
    endloop
  endfacet
  facet normal 0 -0.0394772 0.99922
    outer loop
      vertex 3.21825 20.9594 -2.69336
      vertex -1.78175 20.9594 -2.69336
      vertex 3.21825 20.683 -2.70428
    endloop
  endfacet
  facet normal 0 -0.0394772 0.99922
    outer loop
      vertex 3.21825 20.683 -2.70428
      vertex -1.78175 20.9594 -2.69336
      vertex -1.78175 20.683 -2.70428
    endloop
  endfacet
  facet normal 0 -0.118276 0.992981
    outer loop
      vertex 3.21825 20.683 -2.70428
      vertex -1.78175 20.683 -2.70428
      vertex 3.21825 20.4083 -2.737
    endloop
  endfacet
  facet normal 0 -0.118276 0.992981
    outer loop
      vertex 3.21825 20.4083 -2.737
      vertex -1.78175 20.683 -2.70428
      vertex -1.78175 20.4083 -2.737
    endloop
  endfacet
  facet normal 0 -0.196394 0.980525
    outer loop
      vertex 3.21825 20.4083 -2.737
      vertex -1.78175 20.4083 -2.737
      vertex 3.21825 20.1371 -2.79132
    endloop
  endfacet
  facet normal 0 -0.196394 0.980525
    outer loop
      vertex 3.21825 20.1371 -2.79132
      vertex -1.78175 20.4083 -2.737
      vertex -6.78175 20.4083 -2.737
    endloop
  endfacet
  facet normal 0 -0.196394 0.980525
    outer loop
      vertex 3.21825 20.1371 -2.79132
      vertex -6.78175 20.4083 -2.737
      vertex -11.7817 20.4083 -2.737
    endloop
  endfacet
  facet normal 0 -0.118276 0.992981
    outer loop
      vertex -11.7817 20.4083 -2.737
      vertex -6.78175 20.4083 -2.737
      vertex -11.7817 20.683 -2.70428
    endloop
  endfacet
  facet normal 0 -0.118276 0.992981
    outer loop
      vertex -11.7817 20.4083 -2.737
      vertex -11.7817 20.683 -2.70428
      vertex -16.7817 20.683 -2.70428
    endloop
  endfacet
  facet normal 0 -0.0394772 0.99922
    outer loop
      vertex -16.7817 20.683 -2.70428
      vertex -11.7817 20.683 -2.70428
      vertex -16.7817 20.9594 -2.69336
    endloop
  endfacet
  facet normal 0 -0.0394772 0.99922
    outer loop
      vertex -16.7817 20.683 -2.70428
      vertex -16.7817 20.9594 -2.69336
      vertex -21.7817 20.9594 -2.69336
    endloop
  endfacet
  facet normal -0 0.0394772 0.99922
    outer loop
      vertex -21.7817 20.9594 -2.69336
      vertex -16.7817 20.9594 -2.69336
      vertex -21.7817 21.2358 -2.70428
    endloop
  endfacet
  facet normal -0 0.0394772 0.99922
    outer loop
      vertex -21.7817 21.2358 -2.70428
      vertex -16.7817 20.9594 -2.69336
      vertex -16.7817 21.2358 -2.70428
    endloop
  endfacet
  facet normal -0 0.118276 0.992981
    outer loop
      vertex -21.7817 21.2358 -2.70428
      vertex -16.7817 21.2358 -2.70428
      vertex -21.7817 21.5105 -2.737
    endloop
  endfacet
  facet normal -0 0.118276 0.992981
    outer loop
      vertex -21.7817 21.5105 -2.737
      vertex -16.7817 21.2358 -2.70428
      vertex -16.7817 21.5105 -2.737
    endloop
  endfacet
  facet normal 0 -0.0394772 0.99922
    outer loop
      vertex -21.7817 20.9594 -2.69336
      vertex -21.7817 20.683 -2.70428
      vertex -16.7817 20.683 -2.70428
    endloop
  endfacet
  facet normal 0 -0.118276 0.992981
    outer loop
      vertex -16.7817 20.683 -2.70428
      vertex -21.7817 20.683 -2.70428
      vertex -16.7817 20.4083 -2.737
    endloop
  endfacet
  facet normal 0 -0.118276 0.992981
    outer loop
      vertex -16.7817 20.683 -2.70428
      vertex -16.7817 20.4083 -2.737
      vertex -11.7817 20.4083 -2.737
    endloop
  endfacet
  facet normal 0 -0.196394 0.980525
    outer loop
      vertex -11.7817 20.4083 -2.737
      vertex -16.7817 20.4083 -2.737
      vertex -21.7817 20.1371 -2.79132
    endloop
  endfacet
  facet normal 0 -0.196394 0.980525
    outer loop
      vertex -11.7817 20.4083 -2.737
      vertex -21.7817 20.1371 -2.79132
      vertex 3.21825 20.1371 -2.79132
    endloop
  endfacet
  facet normal 0 -0.118276 0.992981
    outer loop
      vertex -21.7817 20.683 -2.70428
      vertex -21.7817 20.4083 -2.737
      vertex -16.7817 20.4083 -2.737
    endloop
  endfacet
  facet normal 0 -0.196394 0.980525
    outer loop
      vertex -16.7817 20.4083 -2.737
      vertex -21.7817 20.4083 -2.737
      vertex -21.7817 20.1371 -2.79132
    endloop
  endfacet
  facet normal 0 0.0394772 0.99922
    outer loop
      vertex 3.21825 20.9594 -2.69336
      vertex 3.21825 21.2358 -2.70428
      vertex -1.78175 21.2358 -2.70428
    endloop
  endfacet
  facet normal -0 0.118276 0.992981
    outer loop
      vertex -1.78175 21.2358 -2.70428
      vertex 3.21825 21.2358 -2.70428
      vertex -1.78175 21.5105 -2.737
    endloop
  endfacet
  facet normal 0 0.118276 0.992981
    outer loop
      vertex -1.78175 21.2358 -2.70428
      vertex -1.78175 21.5105 -2.737
      vertex -6.78175 21.5105 -2.737
    endloop
  endfacet
  facet normal -0 0.196394 0.980525
    outer loop
      vertex -6.78175 21.5105 -2.737
      vertex -1.78175 21.5105 -2.737
      vertex 3.21825 21.7817 -2.79132
    endloop
  endfacet
  facet normal 0 0.196394 0.980525
    outer loop
      vertex -6.78175 21.5105 -2.737
      vertex 3.21825 21.7817 -2.79132
      vertex -21.7817 21.7817 -2.79132
    endloop
  endfacet
  facet normal 0 0.118276 0.992981
    outer loop
      vertex 3.21825 21.2358 -2.70428
      vertex 3.21825 21.5105 -2.737
      vertex -1.78175 21.5105 -2.737
    endloop
  endfacet
  facet normal -0 0.196394 0.980525
    outer loop
      vertex -1.78175 21.5105 -2.737
      vertex 3.21825 21.5105 -2.737
      vertex 3.21825 21.7817 -2.79132
    endloop
  endfacet
  facet normal 0 0.118276 0.992981
    outer loop
      vertex -11.7817 21.5105 -2.737
      vertex -16.7817 21.5105 -2.737
      vertex -11.7817 21.2358 -2.70428
    endloop
  endfacet
  facet normal 0 0.118276 0.992981
    outer loop
      vertex -11.7817 21.2358 -2.70428
      vertex -16.7817 21.5105 -2.737
      vertex -16.7817 21.2358 -2.70428
    endloop
  endfacet
  facet normal 0 0.0394772 0.99922
    outer loop
      vertex -11.7817 21.2358 -2.70428
      vertex -16.7817 21.2358 -2.70428
      vertex -11.7817 20.9594 -2.69336
    endloop
  endfacet
  facet normal 0 0.0394772 0.99922
    outer loop
      vertex -11.7817 20.9594 -2.69336
      vertex -16.7817 21.2358 -2.70428
      vertex -16.7817 20.9594 -2.69336
    endloop
  endfacet
  facet normal 0 -0.0394772 0.99922
    outer loop
      vertex -11.7817 20.9594 -2.69336
      vertex -16.7817 20.9594 -2.69336
      vertex -11.7817 20.683 -2.70428
    endloop
  endfacet
  facet normal 0 0.118276 0.992981
    outer loop
      vertex -11.7817 21.5105 -2.737
      vertex -11.7817 21.2358 -2.70428
      vertex -6.78175 21.2358 -2.70428
    endloop
  endfacet
  facet normal 0 0.0394772 0.99922
    outer loop
      vertex -6.78175 21.2358 -2.70428
      vertex -11.7817 21.2358 -2.70428
      vertex -6.78175 20.9594 -2.69336
    endloop
  endfacet
  facet normal 0 0.0394772 0.99922
    outer loop
      vertex -6.78175 21.2358 -2.70428
      vertex -6.78175 20.9594 -2.69336
      vertex -1.78175 20.9594 -2.69336
    endloop
  endfacet
  facet normal 0 -0.0394772 0.99922
    outer loop
      vertex -1.78175 20.9594 -2.69336
      vertex -6.78175 20.9594 -2.69336
      vertex -1.78175 20.683 -2.70428
    endloop
  endfacet
  facet normal 0 0.0394772 0.99922
    outer loop
      vertex -6.78175 20.9594 -2.69336
      vertex -11.7817 21.2358 -2.70428
      vertex -11.7817 20.9594 -2.69336
    endloop
  endfacet
  facet normal 0 -0.0394772 0.99922
    outer loop
      vertex -6.78175 20.9594 -2.69336
      vertex -11.7817 20.9594 -2.69336
      vertex -6.78175 20.683 -2.70428
    endloop
  endfacet
  facet normal 0 -0.0394772 0.99922
    outer loop
      vertex -6.78175 20.683 -2.70428
      vertex -11.7817 20.9594 -2.69336
      vertex -11.7817 20.683 -2.70428
    endloop
  endfacet
  facet normal 0 -0.118276 0.992981
    outer loop
      vertex -6.78175 20.683 -2.70428
      vertex -11.7817 20.683 -2.70428
      vertex -6.78175 20.4083 -2.737
    endloop
  endfacet
  facet normal 0 -0.118276 0.992981
    outer loop
      vertex -1.78175 20.4083 -2.737
      vertex -1.78175 20.683 -2.70428
      vertex -6.78175 20.683 -2.70428
    endloop
  endfacet
  facet normal 0 -0.0394772 0.99922
    outer loop
      vertex -6.78175 20.683 -2.70428
      vertex -1.78175 20.683 -2.70428
      vertex -6.78175 20.9594 -2.69336
    endloop
  endfacet
  facet normal 0 -0.118276 0.992981
    outer loop
      vertex -1.78175 20.4083 -2.737
      vertex -6.78175 20.683 -2.70428
      vertex -6.78175 20.4083 -2.737
    endloop
  endfacet
  facet normal 1 0 0
    outer loop
      vertex 3.21825 20.1371 -2.79132
      vertex 3.21825 21.7817 -2.79132
      vertex 3.21825 20.4083 -2.737
    endloop
  endfacet
  facet normal 1 -0 0
    outer loop
      vertex 3.21825 20.4083 -2.737
      vertex 3.21825 21.7817 -2.79132
      vertex 3.21825 21.5105 -2.737
    endloop
  endfacet
  facet normal 1 0 0
    outer loop
      vertex 3.21825 20.4083 -2.737
      vertex 3.21825 21.5105 -2.737
      vertex 3.21825 21.2358 -2.70428
    endloop
  endfacet
  facet normal 1 0 0
    outer loop
      vertex 3.21825 20.9594 -2.69336
      vertex 3.21825 20.683 -2.70428
      vertex 3.21825 21.2358 -2.70428
    endloop
  endfacet
  facet normal 1 0 0
    outer loop
      vertex 3.21825 21.2358 -2.70428
      vertex 3.21825 20.683 -2.70428
      vertex 3.21825 20.4083 -2.737
    endloop
  endfacet
  facet normal 0 0 1
    outer loop
      vertex 13.2817 18.2817 4.09149
      vertex -21.0746 18.2817 4.09149
      vertex 18.2817 13.2817 4.09149
    endloop
  endfacet
  facet normal 0 0 1
    outer loop
      vertex 18.2817 13.2817 4.09149
      vertex -21.0746 18.2817 4.09149
      vertex 18.2817 -21.0746 4.09149
    endloop
  endfacet
endsolid OpenSCAD_Model
